<svg version="1.1" id="Layer_1" xmlns="http://www.w3.org/2000/svg" xmlns:xlink="http://www.w3.org/1999/xlink" x="0px" y="0px"
	 width="100%" viewBox="0 0 382 194" enable-background="new 0 0 382 194" xml:space="preserve">
<path fill="#010101" opacity="1.000000" stroke="none" 
	d="
M251.000000,195.000000 
	C167.333359,195.000000 84.166718,195.000000 1.000056,195.000000 
	C1.000037,130.333374 1.000037,65.666756 1.000019,1.000099 
	C128.333252,1.000066 255.666504,1.000066 382.999817,1.000033 
	C382.999878,65.666565 382.999878,130.333130 382.999939,194.999847 
	C339.166656,195.000000 295.333344,195.000000 251.000000,195.000000 
M333.437927,175.103455 
	C336.526459,179.194092 339.460510,183.417542 342.795319,187.296432 
	C343.829620,188.499527 345.990692,189.411789 347.567413,189.317078 
	C350.146362,189.162155 351.197815,187.345001 351.215637,184.470016 
	C351.294891,171.678726 351.670166,158.889435 351.913818,146.098953 
	C352.575439,111.366524 353.098175,76.630692 353.968964,41.903564 
	C354.182709,33.378952 355.442261,24.780788 364.661743,20.607460 
	C367.759583,19.205170 371.101837,18.342699 374.917908,17.032457 
	C374.520935,14.956761 374.111328,12.814955 373.772308,11.042348 
	C368.915283,11.042348 364.753479,10.835885 360.620178,11.091251 
	C354.581146,11.464358 348.569916,12.514747 342.533447,12.642128 
	C335.470184,12.791177 328.304352,12.857410 321.349213,11.832212 
	C315.831696,11.018923 318.142365,14.670130 317.538818,16.726063 
	C316.459473,20.402878 319.152588,19.891304 321.272461,19.997843 
	C326.800781,20.275682 332.328644,20.563072 339.276154,20.919472 
	C340.260315,62.012146 341.237335,102.807678 342.249176,145.056671 
	C340.409729,142.814255 339.572144,141.856262 338.802979,140.846161 
	C324.516205,122.084412 310.710114,102.932022 295.835754,84.648666 
	C277.887756,62.587265 259.168396,41.145340 240.452957,19.723551 
	C237.011780,15.784762 232.230072,10.921888 227.665939,10.461354 
	C215.132019,9.196644 202.384644,10.020273 189.722000,10.074947 
	C185.969345,10.091150 185.896683,13.178283 186.393082,15.418031 
	C186.724533,16.913498 188.698303,18.660173 190.287155,19.143408 
	C194.603180,20.456089 199.601318,20.261755 203.388718,22.361204 
	C206.883163,24.298258 211.147324,28.188158 211.579315,31.653400 
	C212.675613,40.446968 211.938705,49.487915 211.706512,58.423851 
	C211.359192,71.791344 210.841797,85.154701 210.346573,98.517960 
	C209.971878,108.628754 209.730316,118.751015 209.044495,128.842010 
	C208.274261,140.174973 207.618835,151.562515 205.899521,162.770782 
	C204.244263,173.561615 195.877167,177.749069 186.122162,179.433456 
	C185.393402,186.057693 186.086929,186.334045 194.036163,186.036469 
	C206.255981,185.579071 218.491714,185.537445 230.721222,185.354202 
	C234.679596,185.294891 238.639587,185.344910 242.481628,185.344910 
	C243.912109,177.173325 243.580490,176.772537 236.055130,176.767197 
	C233.389435,176.765305 230.711853,176.899521 228.061188,176.694321 
	C225.082169,176.463699 223.019730,175.464111 222.887939,171.683014 
	C222.194824,151.796890 220.850357,131.926590 220.498383,112.037216 
	C220.067627,87.695786 220.395767,63.340931 220.395767,37.844845 
	C222.593704,39.545364 224.173569,40.405293 225.278427,41.677681 
	C238.645554,57.071606 252.413635,72.148926 265.154816,88.047958 
	C288.068573,116.640778 310.355438,145.735977 333.437927,175.103455 
M65.308540,30.261913 
	C62.615826,26.764778 59.730537,23.397167 57.272301,19.742323 
	C52.781876,13.066078 48.289032,8.097582 38.599331,9.696671 
	C29.679125,11.168768 20.327456,9.985769 11.166530,10.058187 
	C7.016979,10.090988 4.782813,13.808355 7.337841,16.976168 
	C8.576424,18.511806 11.394098,19.369154 13.543003,19.461653 
	C19.569763,19.721075 24.851360,21.649858 29.017855,25.859352 
	C32.940365,29.822342 36.824577,33.965073 39.932434,38.564678 
	C47.747700,50.131207 55.218163,61.935738 62.634895,73.765213 
	C71.152946,87.351257 79.318954,101.192612 81.911224,117.345421 
	C83.841484,129.373199 85.149231,141.483475 83.264290,153.714951 
	C80.686104,170.444839 77.780128,173.610733 60.927471,177.280594 
	C58.255161,177.862518 55.472256,178.198700 52.984161,179.234085 
	C52.002934,179.642410 50.928417,181.903946 51.248886,182.875427 
	C51.727863,184.327408 53.351875,186.367188 54.577614,186.430222 
	C58.607204,186.637466 62.674744,185.871582 66.731361,185.829041 
	C84.651169,185.641083 102.572227,185.567795 120.492912,185.469910 
	C125.899734,185.440369 131.306854,185.465332 136.617920,185.465332 
	C137.376862,176.989609 137.377502,176.973755 129.951294,176.672745 
	C123.863503,176.425964 117.767784,176.314072 111.691635,175.904373 
	C110.752747,175.841080 109.256157,174.606018 109.112732,173.732895 
	C108.232719,168.376068 107.229012,162.978851 107.088905,157.573746 
	C106.791183,146.087936 106.372307,134.542587 107.222214,123.112297 
	C107.765732,115.802620 109.406479,108.160980 112.434204,101.525482 
	C122.340401,79.815262 135.849777,60.212490 150.218460,41.239845 
	C158.038437,30.914219 166.825455,21.580883 180.353699,17.148270 
	C179.706711,14.719969 179.078323,12.361418 178.415771,9.874704 
	C176.696320,10.446646 175.795578,10.975883 174.872910,11.017386 
	C166.317581,11.402215 157.759003,11.940135 149.200302,11.959473 
	C141.128357,11.977711 133.055832,11.296969 124.981773,11.253469 
	C123.702904,11.246579 121.647232,12.736611 121.263634,13.949717 
	C119.604980,19.195126 121.426323,21.049669 127.119194,21.037592 
	C131.499542,21.028297 136.194672,19.506147 140.621841,23.092043 
	C130.549286,49.857342 115.337311,73.510689 100.957184,97.551445 
	C94.624763,84.383080 89.084442,72.010925 82.789665,60.035336 
	C77.554901,50.076389 71.433403,40.583542 65.308540,30.261913 
z"/>
<path fill="#F8FAFB" opacity="1.000000" stroke="none" 
	d="
M333.171082,174.862366 
	C310.355438,145.735977 288.068573,116.640778 265.154816,88.047958 
	C252.413635,72.148926 238.645554,57.071606 225.278427,41.677681 
	C224.173569,40.405293 222.593704,39.545364 220.395767,37.844845 
	C220.395767,63.340931 220.067627,87.695786 220.498383,112.037216 
	C220.850357,131.926590 222.194824,151.796890 222.887939,171.683014 
	C223.019730,175.464111 225.082169,176.463699 228.061188,176.694321 
	C230.711853,176.899521 233.389435,176.765305 236.055130,176.767197 
	C243.580490,176.772537 243.912109,177.173325 242.481628,185.344910 
	C238.639587,185.344910 234.679596,185.294891 230.721222,185.354202 
	C218.491714,185.537445 206.255981,185.579071 194.036163,186.036469 
	C186.086929,186.334045 185.393402,186.057693 186.122162,179.433456 
	C195.877167,177.749069 204.244263,173.561615 205.899521,162.770782 
	C207.618835,151.562515 208.274261,140.174973 209.044495,128.842010 
	C209.730316,118.751015 209.971878,108.628754 210.346573,98.517960 
	C210.841797,85.154701 211.359192,71.791344 211.706512,58.423851 
	C211.938705,49.487915 212.675613,40.446968 211.579315,31.653400 
	C211.147324,28.188158 206.883163,24.298258 203.388718,22.361204 
	C199.601318,20.261755 194.603180,20.456089 190.287155,19.143408 
	C188.698303,18.660173 186.724533,16.913498 186.393082,15.418031 
	C185.896683,13.178283 185.969345,10.091150 189.722000,10.074947 
	C202.384644,10.020273 215.132019,9.196644 227.665939,10.461354 
	C232.230072,10.921888 237.011780,15.784762 240.452957,19.723551 
	C259.168396,41.145340 277.887756,62.587265 295.835754,84.648666 
	C310.710114,102.932022 324.516205,122.084412 338.802979,140.846161 
	C339.572144,141.856262 340.409729,142.814255 342.249176,145.056671 
	C341.237335,102.807678 340.260315,62.012146 339.276154,20.919472 
	C332.328644,20.563072 326.800781,20.275682 321.272461,19.997843 
	C319.152588,19.891304 316.459473,20.402878 317.538818,16.726063 
	C318.142365,14.670130 315.831696,11.018923 321.349213,11.832212 
	C328.304352,12.857410 335.470184,12.791177 342.533447,12.642128 
	C348.569916,12.514747 354.581146,11.464358 360.620178,11.091251 
	C364.753479,10.835885 368.915283,11.042348 373.772308,11.042348 
	C374.111328,12.814955 374.520935,14.956761 374.917908,17.032457 
	C371.101837,18.342699 367.759583,19.205170 364.661743,20.607460 
	C355.442261,24.780788 354.182709,33.378952 353.968964,41.903564 
	C353.098175,76.630692 352.575439,111.366524 351.913818,146.098953 
	C351.670166,158.889435 351.294891,171.678726 351.215637,184.470016 
	C351.197815,187.345001 350.146362,189.162155 347.567413,189.317078 
	C345.990692,189.411789 343.829620,188.499527 342.795319,187.296432 
	C339.460510,183.417542 336.526459,179.194092 333.171082,174.862366 
z"/>
<path fill="#F5FAFB" opacity="1.000000" stroke="none" 
	d="
M65.506615,30.573074 
	C71.433403,40.583542 77.554901,50.076389 82.789665,60.035336 
	C89.084442,72.010925 94.624763,84.383080 100.957184,97.551445 
	C115.337311,73.510689 130.549286,49.857342 140.621841,23.092043 
	C136.194672,19.506147 131.499542,21.028297 127.119194,21.037592 
	C121.426323,21.049669 119.604980,19.195126 121.263634,13.949717 
	C121.647232,12.736611 123.702904,11.246579 124.981773,11.253469 
	C133.055832,11.296969 141.128357,11.977711 149.200302,11.959473 
	C157.759003,11.940135 166.317581,11.402215 174.872910,11.017386 
	C175.795578,10.975883 176.696320,10.446646 178.415771,9.874704 
	C179.078323,12.361418 179.706711,14.719969 180.353699,17.148270 
	C166.825455,21.580883 158.038437,30.914219 150.218460,41.239845 
	C135.849777,60.212490 122.340401,79.815262 112.434204,101.525482 
	C109.406479,108.160980 107.765732,115.802620 107.222214,123.112297 
	C106.372307,134.542587 106.791183,146.087936 107.088905,157.573746 
	C107.229012,162.978851 108.232719,168.376068 109.112732,173.732895 
	C109.256157,174.606018 110.752747,175.841080 111.691635,175.904373 
	C117.767784,176.314072 123.863503,176.425964 129.951294,176.672745 
	C137.377502,176.973755 137.376862,176.989609 136.617920,185.465332 
	C131.306854,185.465332 125.899734,185.440369 120.492912,185.469910 
	C102.572227,185.567795 84.651169,185.641083 66.731361,185.829041 
	C62.674744,185.871582 58.607204,186.637466 54.577614,186.430222 
	C53.351875,186.367188 51.727863,184.327408 51.248886,182.875427 
	C50.928417,181.903946 52.002934,179.642410 52.984161,179.234085 
	C55.472256,178.198700 58.255161,177.862518 60.927471,177.280594 
	C77.780128,173.610733 80.686104,170.444839 83.264290,153.714951 
	C85.149231,141.483475 83.841484,129.373199 81.911224,117.345421 
	C79.318954,101.192612 71.152946,87.351257 62.634895,73.765213 
	C55.218163,61.935738 47.747700,50.131207 39.932434,38.564678 
	C36.824577,33.965073 32.940365,29.822342 29.017855,25.859352 
	C24.851360,21.649858 19.569763,19.721075 13.543003,19.461653 
	C11.394098,19.369154 8.576424,18.511806 7.337841,16.976168 
	C4.782813,13.808355 7.016979,10.090988 11.166530,10.058187 
	C20.327456,9.985769 29.679125,11.168768 38.599331,9.696671 
	C48.289032,8.097582 52.781876,13.066078 57.272301,19.742323 
	C59.730537,23.397167 62.615826,26.764778 65.506615,30.573074 
z"/>
</svg>